<svg id="Calque_1" data-name="Calque 1" xmlns="http://www.w3.org/2000/svg" viewBox="0 0 200 200"><defs><style>.cls-1,.cls-2{fill:#f9f9f9;opacity:0.6;}.cls-1{isolation:isolate;}</style></defs><title>fleche sami portable</title><path class="cls-1" d="M160.56,126l-59.08,61.4a2.05,2.05,0,0,1-2.9.1l-.1-.1-59-61.4a4,4,0,0,0-5.66-.1.94.94,0,0,0-.1.1h0a4.37,4.37,0,0,0,0,6l64.84,67.38h0a2,2,0,0,0,2.82.18l.18-.18L166.32,132a4.37,4.37,0,0,0,0-6h0a4,4,0,0,0-5.66-.1A.94.94,0,0,0,160.56,126Z"/><rect class="cls-2" x="95.17" y="5.83" width="9.67" height="188.33" rx="4.83" ry="4.83"/></svg>