<svg id="logo_v_blanc" data-name="logo v blanc" xmlns="http://www.w3.org/2000/svg" viewBox="0 0 6786.44 4106.11"><defs><style>.cls-1{fill:none;stroke:#f9f9f9;stroke-miterlimit:10;stroke-width:16px;}.cls-2,.cls-3{fill:#f9f9f9;}.cls-3{font-size:1000px;font-family:CormorantSC-Light, Cormorant SC;}.cls-4{letter-spacing:-0.05em;}.cls-5{letter-spacing:-0.01em;}.cls-6{letter-spacing:-0.03em;}</style></defs><title>logo musée d&amp;apos;aquitaine bannière v svg</title><g id="logo_complet" data-name="logo complet"><g id="logo_complet-2" data-name="logo complet"><g id="logo"><path class="cls-1" d="M3150.72,2547.18a1551.83,1551.83,0,0,1-82.93-500.35"/><path class="cls-2" d="M3621.34,3236.74a1722.82,1722.82,0,0,0,392,264.14,1763.26,1763.26,0,0,0,449.28,149.22,1771.36,1771.36,0,0,0,473.3,25.34,1765.49,1765.49,0,0,0,463.34-100.54,1727.89,1727.89,0,0,0,419.2-221.58c128.65-92.69,244.32-203.54,341.64-328.81a1603.65,1603.65,0,0,0,131.63-198,1559.7,1559.7,0,0,0,198.57-679.36A1570.81,1570.81,0,0,1,6459.52,2383a1561.81,1561.81,0,0,1-166.58,444.19,1605.55,1605.55,0,0,1-131.39,198.38c-97.19,125.6-212.8,236.82-341.47,329.9a1731.11,1731.11,0,0,1-419.56,222.77,1769.17,1769.17,0,0,1-464.2,101.65,1878,1878,0,0,1-475-22.83,1772.58,1772.58,0,0,1-453-145.82,1736.56,1736.56,0,0,1-397.62-262.58Z"/><path class="cls-2" d="M3222.93,1347.74a1611.66,1611.66,0,0,1,193.47-299,1671.32,1671.32,0,0,1,253.21-250,1722.07,1722.07,0,0,1,299.6-191.67,1753.14,1753.14,0,0,1,332.23-126.39c28.62-7.81,57.52-14.57,86.49-20.91l21.77-4.55c3.62-.78,7.27-1.45,10.91-2.14l10.93-2.08c14.54-2.89,29.19-5.21,43.8-7.77l22-3.38,11-1.68,11-1.49,22.05-2.95,22.09-2.56c3.68-.42,7.36-.88,11-1.25l11.07-1.08c7.38-.7,14.75-1.49,22.14-2.12,14.78-1.13,29.54-2.48,44.35-3.26,29.58-2,59.22-2.86,88.85-3.36,14.83-.08,29.65-.29,44.46,0l11.12.13c3.7,0,7.41.08,11.11.22l22.22.68c7.41.16,14.8.63,22.2,1l11.1.54c3.7.18,7.41.34,11.1.64l44.33,3.24,5.54.4c1.85.13,3.69.37,5.53.54l11.06,1.15,22.1,2.28,11.06,1.14,5.52.57,5.51.73,22,2.95,22,3c1.84.25,3.67.47,5.5.75l5.49.91,11,1.8,21.92,3.61c7.31,1.23,14.64,2.32,21.89,3.84l43.61,8.53c14.47,3.17,28.89,6.53,43.34,9.78q86.45,20.6,170.62,49.41l41.84,14.92,41.37,16.15,5.17,2,2.58,1,2.56,1.08,10.22,4.35,20.43,8.69,10.22,4.34c1.7.74,3.42,1.43,5.1,2.2l5,2.32,20.17,9.29q80.59,37.31,157.22,82.45-76.76-44.67-157.64-81.54L5496.33,576l-5.05-2.29c-1.68-.77-3.4-1.44-5.1-2.17l-10.24-4.28-20.47-8.57-10.23-4.28-2.56-1.08-2.59-1-5.18-2-41.42-15.91-41.88-14.67q-84.1-28.31-170.65-48.38c-14.44-3.17-28.86-6.44-43.32-9.52l-43.58-8.27c-7.24-1.48-14.56-2.52-21.86-3.7l-21.9-3.48-10.95-1.74-5.47-.87c-1.83-.28-3.67-.48-5.5-.73l-22-2.81-22-2.82-5.5-.7-5.51-.54-11-1.07L4940.28,433l-11-1.08c-1.84-.16-3.67-.39-5.51-.5l-5.53-.38L4874,428c-3.69-.29-7.38-.43-11.07-.58l-11.08-.48c-7.38-.29-14.76-.71-22.15-.83l-22.16-.55c-3.69-.12-7.38-.14-11.08-.16l-11.08-.07c-14.78-.21-29.55.08-44.33.24-29.54.67-59.08,1.72-88.55,3.85-14.75.86-29.46,2.29-44.18,3.49-7.36.68-14.7,1.5-22.05,2.24l-11,1.14c-3.67.38-7.33.87-11,1.3l-22,2.68-21.94,3.06-11,1.55-10.94,1.73-21.88,3.5c-14.53,2.62-29.11,5-43.58,8L4422,460.24c-3.63.71-7.26,1.39-10.86,2.2l-21.66,4.65c-28.81,6.47-57.54,13.37-86,21.3A1744.05,1744.05,0,0,0,3973.73,616a1711.26,1711.26,0,0,0-296.61,192.11,1659,1659,0,0,0-249.85,249.51,1597.37,1597.37,0,0,0-190,297.24Z"/></g><text class="cls-3" transform="translate(1617.05 1960.08)">Musée <tspan x="-1147.99" y="1200">d</tspan><tspan class="cls-4" x="-580" y="1200">’</tspan><tspan class="cls-5" x="-473.01" y="1200">a</tspan><tspan x="75" y="1200">qui</tspan><tspan class="cls-6" x="1524.96" y="1200">t</tspan><tspan x="1984.97" y="1200">aine</tspan></text></g><g id="logo-2" data-name="logo"><path class="cls-2" d="M4645.65,1869.16l-461.06-693.31a43.92,43.92,0,0,1-5.92-13.57c-4.95-19.6-16.4-72-7.61-107.24,1.53-6.12,4.62-10.92,8.68-13.78l30.06-21.21c7.68-5.41,11.37-17.58,9.3-30.64h0c-1.45-9.14-5.54-17.63-11.25-23.26-15.24-15-45-50.49-46.62-100a49,49,0,0,0-.82-7.49c-2.79-14.57-10.53-70.29,26.13-101.85,42.11-36.23,130.34,39.57,127.88,140.8,0,1.28-.15,2.52-.29,3.75-.51,4.45-.42,18.45,20.25,21a14.82,14.82,0,0,0,9.89-2.26c17.37-11,88.65-46.86,124.61,80.56l228,826.12c3.83,13.88,1,28.19-6.94,34.88a86.16,86.16,0,0,0-12.45,12.8,17.11,17.11,0,0,1-9.27,6.32C4660.7,1882.75,4652,1878.7,4645.65,1869.16Z"/><path class="cls-2" d="M5144,2271.76l794.52,249a43.76,43.76,0,0,1,13.14,6.82c16.18,12.12,58,45.64,73.37,78.59,2.66,5.71,3.27,11.39,1.92,16.16l-10,35.4c-2.56,9,2.22,20.81,12,29.67h0c6.87,6.2,15.39,10.23,23.37,11,21.29,2.08,66.76,10.94,99.12,48.38a47.93,47.93,0,0,0,5.35,5.31c11.33,9.58,52.4,48,43.74,95.62-9.94,54.65-126.21,51.22-188-29-.78-1-1.47-2.06-2.14-3.1-2.4-3.78-11.27-14.61-29-3.61a14.83,14.83,0,0,0-6.26,8c-6.56,19.5-39.44,92.19-147.55,15.75l-696.9-498.8c-11.71-8.38-18.53-21.27-16.55-31.48a86.37,86.37,0,0,0,1.63-17.78,17.06,17.06,0,0,1,3.23-10.74C5123.72,2270.65,5133,2268.33,5144,2271.76Z"/><path class="cls-2" d="M5168.06,2133.44l832.25-24.53a44.09,44.09,0,0,1,14.65,2.15c19.26,6.17,69.77,24.16,95,50.28,4.38,4.53,6.82,9.69,7.1,14.65l2.09,36.73c.54,9.38,8.91,18.94,21.09,24.1h0c8.52,3.61,17.89,4.63,25.69,2.76,20.8-5,66.66-11.49,109.49,13.31a48.27,48.27,0,0,0,6.79,3.27c13.84,5.34,65.22,28.25,72.61,76.05,8.47,54.9-102.53,89.68-187.13,34-1.07-.7-2.06-1.46-3-2.23-3.5-2.79-15.43-10.12-28.55,6.06a14.78,14.78,0,0,0-3.31,9.59c.17,20.58-7.13,100-134.29,63.14l-821.7-243.49c-13.81-4.09-24.47-14-25.93-24.34a86.23,86.23,0,0,0-4.28-17.33,17.2,17.2,0,0,1-.46-11.21C5148.56,2139,5156.6,2133.77,5168.06,2133.44Z"/><path class="cls-2" d="M5162.2,2016.52l766.93-324.15a44.37,44.37,0,0,1,14.43-3.3c20.18-1.22,73.78-2.73,106.79,12.47,5.72,2.63,9.87,6.57,11.92,11.08l15.25,33.49c3.89,8.54,15.16,14.43,28.38,14.83h0c9.25.28,18.36-2.16,25-6.73,17.58-12.19,58-34.85,106.88-27.23a49.19,49.19,0,0,0,7.51.59c14.84,0,71,2.72,95.22,44.61,27.78,48.11-63.1,120.71-162.12,99.47-1.24-.27-2.45-.62-3.63-1-4.27-1.33-18.05-3.85-24.42,16a14.74,14.74,0,0,0,.38,10.14c7.61,19.11,29.57,95.82-102.33,107.46l-854.1,70.49c-14.36,1.19-27.9-4.23-33-13.3a87.05,87.05,0,0,0-10.27-14.61,17.2,17.2,0,0,1-4.49-10.28C5146,2028.78,5151.63,2021,5162.2,2016.52Z"/><path class="cls-2" d="M5113,2124.21c9.68-117.66-59.81-256.22-195.45-262.61-33.47-1.58-65.58,3.94-94.36,18-63.54,31.06-110.47,98.1-117.13,179.08-9.69,117.65,69.31,220.18,176.43,229S5103.31,2241.86,5113,2124.21Z"/><path class="cls-2" d="M5099.52,1902.82,5703.78,1330a44.06,44.06,0,0,1,12.36-8.16c18.47-8.23,68.12-28.47,104.36-25.83,6.29.46,11.55,2.68,15.06,6.19l26,26c6.64,6.63,19.26,8.19,31.78,3.92h0c8.75-3,16.42-8.47,21-15.06,12.18-17.59,42.05-53,90.52-63a47.17,47.17,0,0,0,7.23-2.09c13.89-5.23,67.47-22.39,104.82,8.34,42.91,35.29-16.69,135.18-116.86,150.06-1.26.19-2.51.29-3.75.36-4.46.26-18.24,2.74-17.25,23.55a14.74,14.74,0,0,0,3.92,9.35c13.84,15.23,61.33,79.34-58.07,136.56L5150,1946.1c-13,6.15-27.6,5.83-35.55-.87a86.5,86.5,0,0,0-14.74-10.08,17.13,17.13,0,0,1-7.82-8.05C5088.7,1920,5091.2,1910.71,5099.52,1902.82Z"/><path class="cls-2" d="M4739.43,1803.26,4570.68,987.92a44.3,44.3,0,0,1-.43-14.8c2.73-20,11.68-72.9,33-102.32,3.69-5.1,8.36-8.4,13.19-9.54l35.81-8.44c9.14-2.16,17.11-12.07,20.07-25h0c2.07-9,1.45-18.42-1.75-25.78-8.53-19.61-22.9-63.65-5.91-110.13a49,49,0,0,0,2-7.26c2.87-14.56,16.5-69.14,62.29-84.71,52.59-17.89,106.12,85.38,66,178.37-.5,1.17-1.08,2.28-1.67,3.37-2.13,3.93-7.28,16.95,10.93,27.07a14.74,14.74,0,0,0,10,1.59c20.23-3.74,99.74-10.36,85.51,121.28l-97,851.5c-1.63,14.31-9.58,26.54-19.46,29.77a86.48,86.48,0,0,0-16.33,7.22,17.09,17.09,0,0,1-11,2.4C4748.31,1821.49,4741.75,1814.49,4739.43,1803.26Z"/><path class="cls-2" d="M4870.25,1774l120.88-823.8a44.14,44.14,0,0,1,4.67-14c9.43-17.88,35.95-64.48,66.07-84.81,5.22-3.53,10.73-5,15.66-4.45l36.54,4.34c9.32,1.11,20.2-5.47,27.4-16.56h0c5-7.76,7.67-16.81,7.19-24.82-1.3-21.35.3-67.65,32.19-105.49a50,50,0,0,0,4.4-6.12c7.67-12.7,39.18-59.3,87.54-58.24,55.54,1.22,70.44,116.58.91,190.2-.87.92-1.8,1.77-2.73,2.59-3.35,3-12.65,13.43,1,29.18a14.83,14.83,0,0,0,8.87,4.93c20.29,3.41,97.25,24.45,38.76,143.24l-382.94,766.69c-6.44,12.88-18.09,21.65-28.48,21.29a86.92,86.92,0,0,0-17.82,1.19,17.07,17.07,0,0,1-11.12-1.5C4872.35,1794.12,4868.59,1785.3,4870.25,1774Z"/><path class="cls-2" d="M4976.29,1789.77l411.17-724a44,44,0,0,1,9.44-11.41c15.27-13.25,56.87-47.07,92.31-55.11,6.15-1.39,11.83-.79,16.21,1.54l32.48,17.28c8.29,4.41,20.81,2.23,31.55-5.51h0c7.5-5.41,13.24-12.89,15.69-20.52,6.53-20.37,24.79-62.94,68.23-86.66a49,49,0,0,0,6.31-4.11c11.76-9.06,58-41.07,102.7-22.56,51.32,21.26,23.41,134.18-68.07,177.6-1.15.54-2.32,1-3.48,1.43-4.2,1.55-16.66,7.94-9.64,27.55a14.73,14.73,0,0,0,6.47,7.81c17.67,10.54,81.78,58-15.77,147.55l-634.74,575.83c-10.66,9.68-24.7,13.62-34.26,9.52a86.74,86.74,0,0,0-17-5.34,17.06,17.06,0,0,1-9.81-5.43C4970.93,1809.33,4970.62,1799.74,4976.29,1789.77Z"/></g></g></svg>